<svg width="121" height="18" viewBox="0 0 121 18" fill="none" xmlns="http://www.w3.org/2000/svg">
<g clip-path="url(#clip0_969_663)">
<path d="M8.9957 0.855469L11.7751 6.49594L17.9914 7.40043L13.4928 11.7909L14.556 17.9889L8.9957 15.0619L3.4354 17.9889L4.49859 11.7909L0 7.40043L6.21629 6.49594L8.9957 0.855469Z" fill="black"/>
<path d="M34.7478 0.855469L37.5273 6.49594L43.7435 7.40043L39.2449 11.7909L40.3081 17.9889L34.7478 15.0619L29.1875 17.9889L30.2492 11.7909L25.7521 7.40043L31.9684 6.49594L34.7478 0.855469Z" fill="black"/>
<path d="M60.5 0.855469L63.2794 6.49594L69.4957 7.40043L64.9971 11.7909L66.0588 17.9889L60.5 15.0619L54.9397 17.9889L56.0014 11.7909L51.5043 7.40043L57.7206 6.49594L60.5 0.855469Z" fill="black"/>
<path d="M86.2521 0.855469L89.0315 6.49594L95.2478 7.40043L90.7492 11.7909L91.8109 17.9889L86.2521 15.0619L80.6918 17.9889L81.7535 11.7909L77.2564 7.40043L83.4727 6.49594L86.2521 0.855469Z" fill="black"/>
<path d="M112.004 0.855469L114.784 6.49594L121 7.40043L116.501 11.7909L117.563 17.9889L112.004 15.0619L106.444 17.9889L107.506 11.7909L103.009 7.40043L109.225 6.49594L112.004 0.855469Z" fill="black"/>
</g>
<defs>
<clipPath id="clip0_969_663">
<rect width="121" height="17.1334" fill="white" transform="translate(0 0.855469)"/>
</clipPath>
</defs>
</svg>
