<svg width="53" height="56" viewBox="0 0 53 56" fill="none" xmlns="http://www.w3.org/2000/svg">
<path d="M52.325 25.7629H27.4896V33.3294H45.1208C44.2271 43.8891 35.6417 48.4068 27.5167 48.4068C17.1437 48.4068 8.04375 40.0366 8.04375 28.2574C8.04375 16.8939 16.7104 8.10793 27.5437 8.10793C35.9125 8.10793 40.8146 13.568 40.8146 13.568L45.9604 8.08022C45.9604 8.08022 39.3521 0.541504 27.2729 0.541504C11.8896 0.541504 0 13.8451 0 28.2574C0 42.2539 11.1854 55.9732 27.6792 55.9732C42.1688 55.9732 52.7312 45.8015 52.7312 30.7795C52.7312 27.5922 52.325 25.7629 52.325 25.7629Z" fill="black"/>
</svg>
